<svg xmlns="http://www.w3.org/2000/svg" viewBox="0 0 64 64" width="64" height="64" role="img" aria-label="f.help">
  <title>f.help</title>
  <path d="M63.00 32.00L62.99 38.14L62.95 40.68L62.89 42.63L62.81 44.26L62.70 45.69L62.57 46.98L62.41 48.15L62.23 49.23L62.03 50.24L61.80 51.18L61.54 52.06L61.26 52.89L60.96 53.67L60.62 54.41L60.27 55.11L59.88 55.77L59.47 56.39L59.03 56.98L58.56 57.54L58.07 58.07L57.54 58.56L56.98 59.03L56.39 59.47L55.77 59.88L55.11 60.27L54.41 60.62L53.67 60.96L52.89 61.26L52.06 61.54L51.18 61.80L50.24 62.03L49.23 62.23L48.15 62.41L46.98 62.57L45.69 62.70L44.26 62.81L42.63 62.89L40.68 62.95L38.14 62.99L32.00 63.00L25.86 62.99L23.32 62.95L21.37 62.89L19.74 62.81L18.31 62.70L17.02 62.57L15.85 62.41L14.77 62.23L13.76 62.03L12.82 61.80L11.94 61.54L11.11 61.26L10.33 60.96L9.59 60.62L8.89 60.27L8.23 59.88L7.61 59.47L7.02 59.03L6.46 58.56L5.93 58.07L5.44 57.54L4.97 56.98L4.53 56.39L4.12 55.77L3.73 55.11L3.38 54.41L3.04 53.67L2.74 52.89L2.46 52.06L2.20 51.18L1.97 50.24L1.77 49.23L1.59 48.15L1.43 46.98L1.30 45.69L1.19 44.26L1.11 42.63L1.05 40.68L1.01 38.14L1.00 32.00L1.01 25.86L1.05 23.32L1.11 21.37L1.19 19.74L1.30 18.31L1.43 17.02L1.59 15.85L1.77 14.77L1.97 13.76L2.20 12.82L2.46 11.94L2.74 11.11L3.04 10.33L3.38 9.59L3.73 8.89L4.12 8.23L4.53 7.61L4.97 7.02L5.44 6.46L5.93 5.93L6.46 5.44L7.02 4.97L7.61 4.53L8.23 4.12L8.89 3.73L9.59 3.38L10.33 3.04L11.11 2.74L11.94 2.46L12.82 2.20L13.76 1.97L14.77 1.77L15.85 1.59L17.02 1.43L18.31 1.30L19.74 1.19L21.37 1.11L23.32 1.05L25.86 1.01L32.00 1.00L38.14 1.01L40.68 1.05L42.63 1.11L44.26 1.19L45.69 1.30L46.98 1.43L48.15 1.59L49.23 1.77L50.24 1.97L51.18 2.20L52.06 2.46L52.89 2.74L53.67 3.04L54.41 3.38L55.11 3.73L55.77 4.12L56.39 4.53L56.98 4.97L57.54 5.44L58.07 5.93L58.56 6.46L59.03 7.02L59.47 7.61L59.88 8.23L60.27 8.89L60.62 9.59L60.96 10.33L61.26 11.11L61.54 11.94L61.80 12.82L62.03 13.76L62.23 14.77L62.41 15.85L62.57 17.02L62.70 18.31L62.81 19.74L62.89 21.37L62.95 23.32L62.99 25.86Z" fill="#294172"/>
  <text x="32" y="42" fill="#ffffff" text-anchor="middle"
        font-family="ui-monospace, SFMono-Regular, 'SF Mono', Menlo, Consolas, 'Liberation Mono', monospace"
        font-size="27" font-weight="600" letter-spacing="-1.5">f.h</text>
</svg>
